<mxfile host="Electron" modified="2023-09-23T14:33:36.588Z" agent="Mozilla/5.0 (X11; Linux x86_64) AppleWebKit/537.36 (KHTML, like Gecko) draw.io/21.7.5 Chrome/114.0.5735.289 Electron/25.8.1 Safari/537.36" etag="AEqoOMAxSze-ReIdZKpE" version="21.7.5" type="device">
  <diagram name="第 1 页" id="GsJs5P2JUwCovrq6-IVo">
    <mxGraphModel dx="1532" dy="1132" grid="1" gridSize="10" guides="1" tooltips="1" connect="1" arrows="1" fold="1" page="0" pageScale="1" pageWidth="827" pageHeight="1169" math="0" shadow="0">
      <root>
        <mxCell id="0" />
        <mxCell id="1" parent="0" />
        <mxCell id="5yjlM6OjosKDK0_YHAEV-37" value="" style="rounded=0;whiteSpace=wrap;html=1;fontSize=16;fillColor=none;dashed=1;" vertex="1" parent="1">
          <mxGeometry x="-176" y="-125" width="750" height="290" as="geometry" />
        </mxCell>
        <mxCell id="5yjlM6OjosKDK0_YHAEV-3" value="" style="edgeStyle=none;curved=1;rounded=0;orthogonalLoop=1;jettySize=auto;html=1;fontSize=12;startSize=8;endSize=8;" edge="1" parent="1" source="5yjlM6OjosKDK0_YHAEV-1" target="5yjlM6OjosKDK0_YHAEV-2">
          <mxGeometry relative="1" as="geometry" />
        </mxCell>
        <mxCell id="5yjlM6OjosKDK0_YHAEV-1" value="CO&lt;sub&gt;2&lt;/sub&gt;&amp;nbsp;+ NH&lt;sub&gt;3&lt;/sub&gt;" style="text;html=1;align=center;verticalAlign=middle;resizable=0;points=[];autosize=1;strokeColor=#82b366;fillColor=#d5e8d4;fontSize=16;" vertex="1" parent="1">
          <mxGeometry x="-140" y="-97" width="100" height="40" as="geometry" />
        </mxCell>
        <mxCell id="5yjlM6OjosKDK0_YHAEV-26" style="edgeStyle=none;curved=1;rounded=0;orthogonalLoop=1;jettySize=auto;html=1;fontSize=12;startSize=8;endSize=8;" edge="1" parent="1" source="5yjlM6OjosKDK0_YHAEV-2" target="5yjlM6OjosKDK0_YHAEV-8">
          <mxGeometry relative="1" as="geometry">
            <Array as="points">
              <mxPoint x="-90" y="143" />
            </Array>
          </mxGeometry>
        </mxCell>
        <mxCell id="5yjlM6OjosKDK0_YHAEV-2" value="氨基甲酰磷酸" style="text;html=1;align=center;verticalAlign=middle;resizable=0;points=[];autosize=1;strokeColor=none;fillColor=none;fontSize=16;" vertex="1" parent="1">
          <mxGeometry x="-150" y="68" width="120" height="30" as="geometry" />
        </mxCell>
        <mxCell id="5yjlM6OjosKDK0_YHAEV-4" value="2 ATP" style="text;html=1;align=center;verticalAlign=middle;resizable=0;points=[];autosize=1;strokeColor=none;fillColor=none;fontSize=16;" vertex="1" parent="1">
          <mxGeometry x="-165" y="-22" width="70" height="30" as="geometry" />
        </mxCell>
        <mxCell id="5yjlM6OjosKDK0_YHAEV-6" value="氨基甲酰磷酸合成酶Ⅰ&lt;br&gt;CPS-Ⅰ" style="text;html=1;align=center;verticalAlign=middle;resizable=0;points=[];autosize=1;strokeColor=#d79b00;fillColor=#ffe6cc;fontSize=16;rounded=1;" vertex="1" parent="1">
          <mxGeometry x="-80" y="-32" width="180" height="50" as="geometry" />
        </mxCell>
        <mxCell id="5yjlM6OjosKDK0_YHAEV-9" value="" style="edgeStyle=none;curved=1;rounded=0;orthogonalLoop=1;jettySize=auto;html=1;fontSize=12;startSize=8;endSize=8;" edge="1" parent="1" source="5yjlM6OjosKDK0_YHAEV-7" target="5yjlM6OjosKDK0_YHAEV-8">
          <mxGeometry relative="1" as="geometry" />
        </mxCell>
        <mxCell id="5yjlM6OjosKDK0_YHAEV-11" value="" style="edgeStyle=none;curved=1;rounded=0;orthogonalLoop=1;jettySize=auto;html=1;fontSize=12;startSize=8;endSize=8;" edge="1" parent="1" source="5yjlM6OjosKDK0_YHAEV-8" target="5yjlM6OjosKDK0_YHAEV-10">
          <mxGeometry relative="1" as="geometry" />
        </mxCell>
        <mxCell id="5yjlM6OjosKDK0_YHAEV-8" value="瓜氨酸" style="text;html=1;align=center;verticalAlign=middle;resizable=0;points=[];autosize=1;strokeColor=none;fillColor=none;fontSize=16;" vertex="1" parent="1">
          <mxGeometry x="62.5" y="128" width="70" height="30" as="geometry" />
        </mxCell>
        <mxCell id="5yjlM6OjosKDK0_YHAEV-15" value="" style="edgeStyle=none;curved=1;rounded=0;orthogonalLoop=1;jettySize=auto;html=1;fontSize=12;startSize=8;endSize=8;" edge="1" parent="1" source="5yjlM6OjosKDK0_YHAEV-10" target="5yjlM6OjosKDK0_YHAEV-14">
          <mxGeometry relative="1" as="geometry" />
        </mxCell>
        <mxCell id="5yjlM6OjosKDK0_YHAEV-30" style="edgeStyle=none;curved=1;rounded=0;orthogonalLoop=1;jettySize=auto;html=1;fontSize=12;startSize=8;endSize=8;" edge="1" parent="1" source="5yjlM6OjosKDK0_YHAEV-10" target="5yjlM6OjosKDK0_YHAEV-27">
          <mxGeometry relative="1" as="geometry">
            <Array as="points">
              <mxPoint x="-30" y="235" />
            </Array>
          </mxGeometry>
        </mxCell>
        <mxCell id="5yjlM6OjosKDK0_YHAEV-10" value="精氨酸代琥珀酸" style="text;html=1;align=center;verticalAlign=middle;resizable=0;points=[];autosize=1;strokeColor=none;fillColor=none;fontSize=16;" vertex="1" parent="1">
          <mxGeometry x="27.5" y="220" width="140" height="30" as="geometry" />
        </mxCell>
        <mxCell id="5yjlM6OjosKDK0_YHAEV-13" style="edgeStyle=none;curved=1;rounded=0;orthogonalLoop=1;jettySize=auto;html=1;fontSize=12;startSize=8;endSize=8;" edge="1" parent="1" source="5yjlM6OjosKDK0_YHAEV-12" target="5yjlM6OjosKDK0_YHAEV-10">
          <mxGeometry relative="1" as="geometry">
            <Array as="points">
              <mxPoint x="98" y="190" />
            </Array>
          </mxGeometry>
        </mxCell>
        <mxCell id="5yjlM6OjosKDK0_YHAEV-12" value="天冬氨酸" style="text;html=1;align=center;verticalAlign=middle;resizable=0;points=[];autosize=1;strokeColor=none;fillColor=none;fontSize=16;" vertex="1" parent="1">
          <mxGeometry x="130" y="170" width="90" height="30" as="geometry" />
        </mxCell>
        <mxCell id="5yjlM6OjosKDK0_YHAEV-16" style="edgeStyle=none;curved=1;rounded=0;orthogonalLoop=1;jettySize=auto;html=1;fontSize=12;startSize=8;endSize=8;" edge="1" parent="1" source="5yjlM6OjosKDK0_YHAEV-14" target="5yjlM6OjosKDK0_YHAEV-7">
          <mxGeometry relative="1" as="geometry" />
        </mxCell>
        <mxCell id="5yjlM6OjosKDK0_YHAEV-29" style="edgeStyle=none;curved=1;rounded=0;orthogonalLoop=1;jettySize=auto;html=1;fontSize=12;startSize=8;endSize=8;" edge="1" parent="1" source="5yjlM6OjosKDK0_YHAEV-14" target="5yjlM6OjosKDK0_YHAEV-18">
          <mxGeometry relative="1" as="geometry">
            <Array as="points">
              <mxPoint x="-90" y="190" />
            </Array>
          </mxGeometry>
        </mxCell>
        <mxCell id="5yjlM6OjosKDK0_YHAEV-14" value="精氨酸" style="text;html=1;align=center;verticalAlign=middle;resizable=0;points=[];autosize=1;strokeColor=none;fillColor=none;fontSize=16;" vertex="1" parent="1">
          <mxGeometry x="-125" y="220" width="70" height="30" as="geometry" />
        </mxCell>
        <mxCell id="5yjlM6OjosKDK0_YHAEV-18" value="尿素" style="text;html=1;align=center;verticalAlign=middle;resizable=0;points=[];autosize=1;strokeColor=#82b366;fillColor=#d5e8d4;fontSize=16;" vertex="1" parent="1">
          <mxGeometry x="-200" y="170" width="60" height="30" as="geometry" />
        </mxCell>
        <mxCell id="5yjlM6OjosKDK0_YHAEV-20" style="edgeStyle=none;curved=1;rounded=0;orthogonalLoop=1;jettySize=auto;html=1;fontSize=12;startSize=8;endSize=8;dashed=1;" edge="1" parent="1" source="5yjlM6OjosKDK0_YHAEV-19" target="5yjlM6OjosKDK0_YHAEV-6">
          <mxGeometry relative="1" as="geometry" />
        </mxCell>
        <mxCell id="5yjlM6OjosKDK0_YHAEV-22" value="别构激活" style="edgeLabel;html=1;align=center;verticalAlign=middle;resizable=0;points=[];fontSize=16;" vertex="1" connectable="0" parent="5yjlM6OjosKDK0_YHAEV-20">
          <mxGeometry x="-0.0686" y="1" relative="1" as="geometry">
            <mxPoint as="offset" />
          </mxGeometry>
        </mxCell>
        <mxCell id="5yjlM6OjosKDK0_YHAEV-19" value="AGA&lt;br&gt;N-乙酰谷氨酸" style="text;html=1;align=center;verticalAlign=middle;resizable=0;points=[];autosize=1;strokeColor=none;fillColor=none;fontSize=16;" vertex="1" parent="1">
          <mxGeometry x="200" y="-32" width="120" height="50" as="geometry" />
        </mxCell>
        <mxCell id="5yjlM6OjosKDK0_YHAEV-24" style="edgeStyle=none;curved=1;rounded=0;orthogonalLoop=1;jettySize=auto;html=1;fontSize=12;startSize=8;endSize=8;" edge="1" parent="1" source="5yjlM6OjosKDK0_YHAEV-23" target="5yjlM6OjosKDK0_YHAEV-19">
          <mxGeometry relative="1" as="geometry" />
        </mxCell>
        <mxCell id="5yjlM6OjosKDK0_YHAEV-23" value="乙酰 CoA + 谷氨酸" style="text;html=1;align=center;verticalAlign=middle;resizable=0;points=[];autosize=1;strokeColor=none;fillColor=none;fontSize=16;" vertex="1" parent="1">
          <mxGeometry x="410" y="-22" width="160" height="30" as="geometry" />
        </mxCell>
        <mxCell id="5yjlM6OjosKDK0_YHAEV-25" value="AGA 合酶" style="text;html=1;align=center;verticalAlign=middle;resizable=0;points=[];autosize=1;strokeColor=#d79b00;fillColor=#ffe6cc;fontSize=16;rounded=1;" vertex="1" parent="1">
          <mxGeometry x="320" width="90" height="30" as="geometry" />
        </mxCell>
        <mxCell id="5yjlM6OjosKDK0_YHAEV-31" style="edgeStyle=none;curved=1;rounded=0;orthogonalLoop=1;jettySize=auto;html=1;fontSize=12;startSize=8;endSize=8;" edge="1" parent="1" source="5yjlM6OjosKDK0_YHAEV-27" target="5yjlM6OjosKDK0_YHAEV-32">
          <mxGeometry relative="1" as="geometry">
            <mxPoint x="170" y="295" as="targetPoint" />
          </mxGeometry>
        </mxCell>
        <mxCell id="5yjlM6OjosKDK0_YHAEV-34" value="三羧酸循环" style="edgeLabel;html=1;align=center;verticalAlign=middle;resizable=0;points=[];fontSize=16;" vertex="1" connectable="0" parent="5yjlM6OjosKDK0_YHAEV-31">
          <mxGeometry x="-0.1247" y="-2" relative="1" as="geometry">
            <mxPoint y="-2" as="offset" />
          </mxGeometry>
        </mxCell>
        <mxCell id="5yjlM6OjosKDK0_YHAEV-27" value="延胡索酸" style="text;html=1;align=center;verticalAlign=middle;resizable=0;points=[];autosize=1;strokeColor=none;fillColor=none;fontSize=16;" vertex="1" parent="1">
          <mxGeometry x="-80" y="280" width="90" height="30" as="geometry" />
        </mxCell>
        <mxCell id="5yjlM6OjosKDK0_YHAEV-28" value="" style="edgeStyle=none;curved=1;rounded=0;orthogonalLoop=1;jettySize=auto;html=1;fontSize=12;startSize=8;endSize=8;" edge="1" parent="1" source="5yjlM6OjosKDK0_YHAEV-14" target="5yjlM6OjosKDK0_YHAEV-7">
          <mxGeometry relative="1" as="geometry">
            <mxPoint x="-165" y="143" as="targetPoint" />
            <mxPoint x="-92" y="220" as="sourcePoint" />
            <Array as="points" />
          </mxGeometry>
        </mxCell>
        <mxCell id="5yjlM6OjosKDK0_YHAEV-7" value="鸟氨酸" style="text;html=1;align=center;verticalAlign=middle;resizable=0;points=[];autosize=1;strokeColor=none;fillColor=none;fontSize=16;" vertex="1" parent="1">
          <mxGeometry x="-125" y="128" width="70" height="30" as="geometry" />
        </mxCell>
        <mxCell id="5yjlM6OjosKDK0_YHAEV-33" style="edgeStyle=none;curved=1;rounded=0;orthogonalLoop=1;jettySize=auto;html=1;fontSize=12;startSize=8;endSize=8;" edge="1" parent="1" source="5yjlM6OjosKDK0_YHAEV-32" target="5yjlM6OjosKDK0_YHAEV-12">
          <mxGeometry relative="1" as="geometry" />
        </mxCell>
        <mxCell id="5yjlM6OjosKDK0_YHAEV-32" value="草酰乙酸" style="text;html=1;align=center;verticalAlign=middle;resizable=0;points=[];autosize=1;strokeColor=none;fillColor=none;fontSize=16;" vertex="1" parent="1">
          <mxGeometry x="130" y="280" width="90" height="30" as="geometry" />
        </mxCell>
        <mxCell id="5yjlM6OjosKDK0_YHAEV-35" value="AST" style="text;html=1;align=center;verticalAlign=middle;resizable=0;points=[];autosize=1;strokeColor=#d79b00;fillColor=#ffe6cc;fontSize=16;rounded=1;" vertex="1" parent="1">
          <mxGeometry x="182.5" y="220" width="50" height="30" as="geometry" />
        </mxCell>
        <mxCell id="5yjlM6OjosKDK0_YHAEV-39" style="edgeStyle=none;curved=1;rounded=0;orthogonalLoop=1;jettySize=auto;html=1;fontSize=12;startSize=8;endSize=8;" edge="1" parent="1" source="5yjlM6OjosKDK0_YHAEV-38" target="5yjlM6OjosKDK0_YHAEV-25">
          <mxGeometry relative="1" as="geometry" />
        </mxCell>
        <mxCell id="5yjlM6OjosKDK0_YHAEV-40" value="激活" style="edgeLabel;html=1;align=center;verticalAlign=middle;resizable=0;points=[];fontSize=16;" vertex="1" connectable="0" parent="5yjlM6OjosKDK0_YHAEV-39">
          <mxGeometry x="0.0463" relative="1" as="geometry">
            <mxPoint y="6" as="offset" />
          </mxGeometry>
        </mxCell>
        <mxCell id="5yjlM6OjosKDK0_YHAEV-38" value="精氨酸" style="text;html=1;align=center;verticalAlign=middle;resizable=0;points=[];autosize=1;strokeColor=none;fillColor=none;fontSize=16;" vertex="1" parent="1">
          <mxGeometry x="330" y="98" width="70" height="30" as="geometry" />
        </mxCell>
        <mxCell id="5yjlM6OjosKDK0_YHAEV-42" value="&lt;font style=&quot;font-size: 18px;&quot;&gt;线粒体&lt;/font&gt;" style="text;html=1;align=center;verticalAlign=middle;resizable=0;points=[];autosize=1;strokeColor=none;fillColor=none;fontSize=16;" vertex="1" parent="1">
          <mxGeometry x="494" y="-125" width="80" height="40" as="geometry" />
        </mxCell>
      </root>
    </mxGraphModel>
  </diagram>
</mxfile>
